<svg data-v-423bf9ae="" xmlns="http://www.w3.org/2000/svg" viewBox="0 0 514 107" class="iconLeft"><!----><!----><!----><g data-v-423bf9ae="" id="15565ef9-99ff-41e2-b2c9-6654f7f4fa33" fill="black" transform="matrix(5.540166244014879,0,0,5.540166244014879,101.86858390254602,7.528864788118696)"><path d="M14.07 4.27L14.07 3.09L17.43 3.09L17.43 4.27L16.53 4.27L13.57 13.45L11.48 13.45L8.67 4.42L6.08 13.45L4.01 13.45L0.98 4.27L0.07 4.27L0.07 3.09L3.43 3.09L3.43 4.27L2.53 4.27L5.04 12.24L7.68 3.09L9.73 3.09L12.54 12.24L15.10 4.27L14.07 4.27ZM23.28 6.33L23.28 7.87L21.98 7.87L21.98 7.43Q21.75 7.43 21.52 7.52Q21.28 7.60 21.08 7.78Q20.87 7.95 20.72 8.22Q20.56 8.49 20.49 8.86L20.49 8.86L20.49 12.28L21.70 12.28L21.70 13.45L18.18 13.45L18.18 12.28L19.16 12.28L19.17 7.55L18.18 7.55L18.18 6.37L20.45 6.37L20.45 7.35Q20.57 7.13 20.72 6.94Q20.88 6.75 21.06 6.61Q21.25 6.47 21.48 6.40Q21.71 6.32 21.98 6.32L21.98 6.32Q22.33 6.32 22.65 6.32Q22.96 6.32 23.28 6.33L23.28 6.33ZM24.69 7.55L24.69 6.37L27.00 6.37L27.00 12.28L28.07 12.28L28.07 13.45L24.71 13.45L24.71 12.28L25.72 12.28L25.72 7.55L24.69 7.55ZM25.48 3.86L25.48 3.86Q25.48 3.68 25.55 3.52Q25.62 3.36 25.74 3.24Q25.86 3.12 26.02 3.05Q26.19 2.98 26.37 2.98L26.37 2.98Q26.55 2.98 26.71 3.05Q26.87 3.12 26.99 3.24Q27.11 3.36 27.18 3.52Q27.25 3.68 27.25 3.86L27.25 3.86Q27.25 4.05 27.18 4.21Q27.11 4.38 26.99 4.50Q26.87 4.63 26.71 4.70Q26.55 4.77 26.37 4.77L26.37 4.77Q26.19 4.77 26.02 4.70Q25.86 4.63 25.74 4.50Q25.62 4.38 25.55 4.21Q25.48 4.05 25.48 3.86ZM31.29 4.09L31.29 6.37L32.95 6.37L32.95 7.40L31.27 7.40L31.25 11.49Q31.25 11.91 31.35 12.17Q31.45 12.43 31.66 12.53Q31.87 12.63 32.14 12.63L32.14 12.63Q32.42 12.63 32.64 12.57Q32.86 12.52 33.12 12.40L33.12 12.40L33.41 13.25Q33.09 13.43 32.72 13.52Q32.36 13.62 31.87 13.62L31.87 13.62Q31.40 13.62 31.06 13.51Q30.71 13.40 30.48 13.13Q30.24 12.87 30.13 12.42Q30.01 11.97 30.01 11.30L30.01 11.30L30.03 7.40L28.90 7.40L28.90 6.37L30.04 6.37L30.04 4.68L31.29 4.09ZM40.75 10.08L35.65 10.08Q35.65 10.38 35.69 10.63Q35.74 10.88 35.82 11.10L35.82 11.10Q36.07 11.79 36.63 12.13Q37.19 12.48 37.89 12.48L37.89 12.48Q38.45 12.48 38.97 12.32Q39.49 12.17 40.07 11.84L40.07 11.84L40.58 12.71Q39.88 13.19 39.18 13.42Q38.47 13.65 37.71 13.65L37.71 13.65Q37.00 13.65 36.38 13.41Q35.77 13.17 35.33 12.70Q34.89 12.23 34.64 11.53Q34.39 10.82 34.39 9.88L34.39 9.88Q34.39 9.13 34.60 8.45Q34.82 7.78 35.24 7.28Q35.66 6.77 36.28 6.48Q36.90 6.19 37.73 6.19L37.73 6.19Q38.53 6.19 39.06 6.43Q39.60 6.67 39.94 7.07Q40.28 7.47 40.45 7.98Q40.63 8.50 40.69 9.03L40.69 9.03Q40.73 9.29 40.74 9.56Q40.75 9.82 40.75 10.08L40.75 10.08ZM37.64 7.25L37.64 7.25Q37.19 7.25 36.86 7.38Q36.53 7.51 36.30 7.74Q36.07 7.98 35.93 8.32Q35.79 8.66 35.72 9.08L35.72 9.08L39.39 9.08Q39.36 8.69 39.26 8.35Q39.16 8.02 38.96 7.77Q38.75 7.53 38.43 7.39Q38.11 7.25 37.64 7.25ZM44.89 13.45L44.89 12.28L45.84 12.28L45.84 4.21L43.48 4.21L43.48 5.82L42.08 5.82L42.08 3.09L51.32 3.09L51.32 5.82L49.92 5.82L49.92 4.21L47.18 4.21L47.18 12.28L48.25 12.28L48.25 13.45L44.89 13.45ZM56.90 10.08L51.80 10.08Q51.80 10.38 51.85 10.63Q51.89 10.88 51.97 11.10L51.97 11.10Q52.23 11.79 52.78 12.13Q53.34 12.48 54.04 12.48L54.04 12.48Q54.60 12.48 55.12 12.32Q55.64 12.17 56.22 11.84L56.22 11.84L56.73 12.71Q56.03 13.19 55.33 13.42Q54.63 13.65 53.87 13.65L53.87 13.65Q53.15 13.65 52.54 13.41Q51.93 13.17 51.48 12.70Q51.04 12.23 50.79 11.53Q50.54 10.82 50.54 9.88L50.54 9.88Q50.54 9.13 50.76 8.45Q50.97 7.78 51.39 7.28Q51.81 6.77 52.43 6.48Q53.05 6.19 53.88 6.19L53.88 6.19Q54.68 6.19 55.22 6.43Q55.75 6.67 56.09 7.07Q56.43 7.47 56.60 7.98Q56.78 8.50 56.85 9.03L56.85 9.03Q56.88 9.29 56.89 9.56Q56.90 9.82 56.90 10.08L56.90 10.08ZM53.79 7.25L53.79 7.25Q53.35 7.25 53.02 7.38Q52.68 7.51 52.45 7.74Q52.22 7.98 52.08 8.32Q51.94 8.66 51.87 9.08L51.87 9.08L55.54 9.08Q55.51 8.69 55.42 8.35Q55.32 8.02 55.11 7.77Q54.91 7.53 54.58 7.39Q54.26 7.25 53.79 7.25ZM65.03 8.26L63.75 8.26Q63.46 7.75 63.02 7.51Q62.58 7.27 62.00 7.27L62.00 7.27Q61.55 7.27 61.16 7.45Q60.77 7.64 60.48 7.98Q60.19 8.32 60.02 8.81Q59.86 9.30 59.86 9.90L59.86 9.90Q59.86 10.49 60.02 10.97Q60.19 11.45 60.48 11.79Q60.78 12.13 61.16 12.31Q61.55 12.49 62.00 12.49L62.00 12.49Q62.65 12.49 63.14 12.17Q63.62 11.85 63.91 11.24L63.91 11.24L64.96 11.76Q64.76 12.20 64.46 12.54Q64.16 12.89 63.78 13.14Q63.40 13.38 62.94 13.52Q62.49 13.65 61.98 13.65L61.98 13.65Q61.24 13.65 60.62 13.37Q59.99 13.10 59.54 12.60Q59.08 12.10 58.83 11.41Q58.58 10.72 58.58 9.90L58.58 9.90Q58.58 9.08 58.84 8.39Q59.11 7.70 59.58 7.20Q60.04 6.71 60.66 6.43Q61.28 6.15 62.00 6.15L62.00 6.15Q62.67 6.15 63.26 6.38Q63.86 6.61 64.31 7.08L64.31 7.08L65.03 7.08L65.03 8.26ZM66.37 3.99L66.37 2.82L68.61 2.82L68.61 7.15L68.65 7.15Q68.84 6.96 69.09 6.79Q69.34 6.62 69.62 6.50Q69.89 6.38 70.18 6.31Q70.48 6.24 70.80 6.24L70.80 6.24Q71.37 6.24 71.83 6.40Q72.28 6.56 72.60 6.88Q72.93 7.20 73.10 7.70Q73.27 8.20 73.27 8.89L73.27 8.89L73.27 12.28L74.34 12.28L74.34 13.45L70.98 13.45L70.98 12.28L71.95 12.28L71.95 9.04Q71.95 8.23 71.53 7.81Q71.12 7.39 70.35 7.39L70.35 7.39Q69.91 7.39 69.46 7.60Q69.01 7.81 68.61 8.12L68.61 8.12L68.61 12.28L69.64 12.28L69.64 13.45L66.27 13.45L66.27 12.28L67.34 12.28L67.34 3.99L66.37 3.99Z"></path></g><!----><g data-v-423bf9ae="" id="01d67d17-a243-4907-b20b-868f7f813686" transform="matrix(1.0868111504448785,0,0,1.0868111504448785,-13.255261890115804,-0.23894260335429607)" stroke="none" fill="black"><g clip-rule="evenodd"><path d="M12.983 10.59l17.018 88.223-5.872-59.049 29.021-1.892-.054-9.883L64.549 1 53.622 18.977z"></path><path d="M59.389 54.548l5.16-53.541-8.74 39.716-19.612 1.045 1.57 20.462-7.766 36.583 12.057-39.899z"></path><path d="M62.8 67.182l.549-10.453-15.979 3.755-.032 11.797-17.337 26.532 21.68-27.616zM65.711 62.394l14.841-4.731 1.509-12.532-15.899 2.095zM72.07 44.502l10.988-1.417 1.581-10.278-8.079-.373L64.549 1l8.43 30.967z"></path><path d="M87.413 31.294l1.256-9.506-9.544-2.694L64.549 1l14.483 22.437-.422 7z"></path></g></g><!----></svg>